<?xml version="1.0" encoding="UTF-8" standalone="no"?>
<svg
   width="210mm"
   height="210mm"
   version="1.1"
   viewBox="0 0 210 210"
   id="svg11"
   sodipodi:docname="app-pointing.svg"
   inkscape:version="1.2.2 (b0a84865, 2022-12-01)"
   xmlns:inkscape="http://www.inkscape.org/namespaces/inkscape"
   xmlns:sodipodi="http://sodipodi.sourceforge.net/DTD/sodipodi-0.dtd"
   xmlns="http://www.w3.org/2000/svg"
   xmlns:svg="http://www.w3.org/2000/svg">
  <defs
     id="defs15" />
  <sodipodi:namedview
     id="namedview13"
     pagecolor="#ffffff"
     bordercolor="#000000"
     borderopacity="0.25"
     inkscape:showpageshadow="2"
     inkscape:pageopacity="0.0"
     inkscape:pagecheckerboard="0"
     inkscape:deskcolor="#d1d1d1"
     inkscape:document-units="pt"
     showgrid="false"
     inkscape:zoom="0.71513676"
     inkscape:cx="548.1469"
     inkscape:cy="473.33604"
     inkscape:window-width="1920"
     inkscape:window-height="1027"
     inkscape:window-x="1512"
     inkscape:window-y="301"
     inkscape:window-maximized="0"
     inkscape:current-layer="svg11" />
  <path
     d="m 179.88112,140.99265 -2.56058,-3.47859 c 1.48162,-7.5369 3.52686,-13.3024 -1.12731,-19.58306 L 153.30852,84.466259 c -2.67327,-3.62356 -8.02013,-4.235448 -11.91733,-1.368893 -2.86669,2.109643 -4.20332,2.850543 -5.44341,5.137292 l -1.69098,-2.286749 c -2.86669,-3.897376 -8.3582,-4.718672 -12.23942,-1.86813 -2.86669,2.109644 -4.23545,2.850543 -5.41112,5.217863 -2.91494,-3.671828 -8.26165,-4.428695 -12.06231,-1.610453 l -0.78912,0.579759 V 33.05986 c 0,-5.26613 -4.28389,-9.533869 -9.533868,-9.533869 h -67.13903 c -5.26613,0 -9.533866,4.283878 -9.533866,9.533869 v 122.29803 c 0,5.26613 4.283884,9.53387 9.533866,9.53387 72.325107,0 69.088748,0.70859 72.567323,-1.69098 13.511625,7.42421 8.809115,10.32303 34.641415,5.10516 l 3.34974,4.54157 c -0.96627,3.0115 -0.48314,6.36123 1.44941,8.97025 8.80912,11.94945 8.55144,12.06231 9.93652,12.27171 0.66029,0.0966 1.28836,-0.0805 1.78755,-0.45092 l 46.04256,-33.98008 c 0.51535,-0.3865 0.85355,-0.95015 0.95016,-1.57823 0.20937,-1.33668 0.41872,-0.61198 -8.79315,-13.10899 -2.14194,-2.89881 -5.63649,-4.34813 -9.11506,-3.97776 z M 22.362772,33.060678 c 0,-2.592867 2.109646,-4.70251 4.702514,-4.70251 h 67.171668 c 2.592869,0 4.702518,2.109643 4.702518,4.70251 v 8.712583 h -76.5767 z m 0,13.543931 h 76.5767 V 92.614532 L 86.055866,75.15811 C 83.881802,72.227181 79.984426,71.212466 76.296624,72.291428 61.158391,58.860183 37.049735,69.537594 37.049735,89.941959 c 0,21.579181 26.990288,32.016621 41.389003,15.492621 l 17.569797,23.78657 c 1.481615,2.01311 2.206361,4.42869 2.109648,6.87658 -13.721037,-1.27225 -14.639037,-1.70708 -17.586976,-0.51534 -4.267737,1.77141 -6.989441,3.97776 -8.744703,6.21642 H 22.361569 Z m 27.813121,45.721326 5.314571,6.055303 c 0.966271,1.095101 2.673263,1.095101 3.623557,0 l 7.665743,-8.728555 8.696432,11.788497 c -10.983357,14.13967 -33.610742,6.32911 -33.610742,-11.482564 0,-15.347631 17.521699,-24.20571 29.874497,-15.122083 -2.769974,2.045235 -6.312965,4.267739 -6.602932,9.372741 l -7.84285,8.92198 -3.49472,-3.993923 c -2.109648,-2.39961 -5.733203,0.789133 -3.639704,3.188604 z M 27.081606,160.07824 c -2.592869,0 -4.702516,-2.10964 -4.702516,-4.70252 v -8.72855 h 46.992511 c -0.901851,3.36588 -0.708598,6.69948 1.964835,8.95411 4.783081,4.04218 7.279236,-1.44941 21.773289,4.47696 z m 89.975634,6.05529 c -6.00701,0.48314 -6.81216,-3.28532 -18.487096,-8.92198 -15.959525,-7.71401 -22.063604,-3.55913 -24.12498,-5.29842 -1.272247,-1.079 -0.595875,-3.83279 0.03221,-5.26613 1.787556,-4.04218 7.697866,-7.18252 10.161898,-6.92486 l 15.315341,1.4172 c 1.046797,0.0966 2.286747,-0.64418 2.576717,-1.85197 1.09511,-4.70252 -0.0966,-9.4533 -2.657287,-12.9159 C 70.032187,85.932414 70.386056,86.576593 70.128385,85.836212 c -0.708598,-1.932537 0.547552,-4.219298 2.206359,-5.44341 2.705556,-1.996956 5.024605,-4.299856 7.939563,-3.559141 1.755434,0.434817 0.708598,-0.402619 18.665763,23.930879 l 12.46479,16.87752 c 1.90025,2.57672 5.78147,-0.30598 3.88122,-2.86669 L 103.77142,99.170061 c -1.30448,-1.80371 -0.78913,-4.267744 0.85355,-5.475543 l 2.80209,-2.077514 c 1.75544,-1.28837 4.2193,-0.917972 5.50765,0.837424 l 15.9274,21.579192 c 1.90025,2.57671 5.78147,-0.30598 3.88123,-2.8667 l -11.4987,-15.573007 c -1.28837,-1.755442 -0.91797,-4.20332 0.80523,-5.491678 l 2.83439,-2.093676 c 1.73928,-1.272242 4.20331,-0.901856 5.49168,0.837436 17.65053,23.915405 16.65213,23.319315 18.439,23.319315 1.96484,0 3.12436,-2.23848 1.94869,-3.84893 L 140.27964,94.096147 c -1.07899,-1.481615 -0.54755,-3.736247 1.19174,-5.024605 l 2.80209,-2.077526 c 1.75544,-1.288358 4.05834,-1.12731 5.10517,0.273793 l 22.88472,33.464741 c 1.75543,2.38346 2.39961,5.37881 1.77141,8.4549 -1.77141,9.00237 -2.07753,9.21178 -1.24005,10.35515 2.70555,3.67183 2.43173,3.17264 2.2225,3.31744 -34.62425,25.55764 -33.99725,25.05947 -34.60879,25.60573 -6.53835,-8.85739 -0.82132,-4.23544 -23.35196,-2.35134 z m 32.82055,22.19244 -6.90887,-9.37274 c -1.72315,-2.33519 -1.12733,-5.58822 1.07899,-7.21482 35.1877,-25.97677 34.04534,-25.33259 35.34917,-25.73456 2.10964,-0.66029 4.39657,0.0805 5.70107,1.85197 l 6.92486,9.37274 -42.14484,31.11304 z"
     id="path9"
     style="stroke-width:0.171781" />
</svg>
