<?xml version="1.0" encoding="UTF-8" standalone="no"?>
<svg
   width="210mm"
   height="210mm"
   version="1.1"
   viewBox="0 0 210 210"
   id="svg27"
   sodipodi:docname="four-apps.svg"
   inkscape:version="1.2.2 (b0a84865, 2022-12-01)"
   xmlns:inkscape="http://www.inkscape.org/namespaces/inkscape"
   xmlns:sodipodi="http://sodipodi.sourceforge.net/DTD/sodipodi-0.dtd"
   xmlns="http://www.w3.org/2000/svg"
   xmlns:svg="http://www.w3.org/2000/svg">
  <defs
     id="defs31" />
  <sodipodi:namedview
     id="namedview29"
     pagecolor="#ffffff"
     bordercolor="#000000"
     borderopacity="0.25"
     inkscape:showpageshadow="2"
     inkscape:pageopacity="0.0"
     inkscape:pagecheckerboard="0"
     inkscape:deskcolor="#d1d1d1"
     inkscape:document-units="pt"
     showgrid="false"
     inkscape:zoom="0.41627274"
     inkscape:cx="1290.0196"
     inkscape:cy="649.81435"
     inkscape:window-width="1920"
     inkscape:window-height="1027"
     inkscape:window-x="1512"
     inkscape:window-y="301"
     inkscape:window-maximized="0"
     inkscape:current-layer="svg27" />
  <g
     id="g25"
     transform="matrix(0.14472274,0,0,0.14472274,18.891196,20.016018)">
    <path
       d="M 836.4,0 H 363.6 c -56.398,0 -102,45.602 -102,102 v 997.2 c 0,56.398 45.602,102 102,102 h 472.8 c 56.398,0 102,-45.602 102,-102 L 938.396,102 C 937.1968,45.602 891.599,0 836.396,0 Z M 363.6,39.602 h 472.8 c 34.801,0 62.398,27.602 62.398,62.398 v 56.398 h -598.8 V 102 c 0,-34.801 27.602,-62.398 63.602,-62.398 z m 535.2,157.2 v 794.4 H 300 v -794.4 z m -62.402,964.8 h -472.8 c -34.801,0 -62.398,-27.602 -62.398,-62.398 v -69.602 H 900 v 69.602 c -1.1992,33.598 -28.801,62.398 -63.602,62.398 z"
       id="path9" />
    <path
       d="m 639.6,1093.2 c 0,22.535 -18.27,40.801 -40.801,40.801 -22.535,0 -40.801,-18.266 -40.801,-40.801 0,-22.531 18.266,-40.801 40.801,-40.801 22.531,0 40.801,18.27 40.801,40.801"
       id="path11" />
    <path
       d="m 638.4,1093.2 c 0,22.535 -18.266,40.801 -40.797,40.801 -22.535,0 -40.801,-18.266 -40.801,-40.801 0,-22.531 18.266,-40.801 40.801,-40.801 22.531,0 40.797,18.27 40.797,40.801"
       id="path13" />
    <path
       d="m 524.4,86.398 c -8.3984,0 -15.602,7.1992 -15.602,15.602 0,8.3984 7.1992,15.602 15.602,15.602 h 145.2 c 8.3984,0 15.602,-7.1992 15.602,-15.602 0,-9.6016 -7.1992,-15.602 -15.602,-15.602 z"
       id="path15" />
    <path
       d="m 405.6,541.2 c 0,2.3984 7.1992,28.801 32.398,38.398 15.602,6 40.801,6 51.602,6 10.801,0 36,-1.1992 51.602,-6 26.398,-9.6016 31.199,-37.199 32.398,-38.398 3.6016,-13.199 4.8008,-27.602 4.8008,-43.199 0,-15.602 -1.1992,-30 -4.8008,-42 0,-1.1992 -6,-28.801 -32.398,-38.398 -15.602,-6 -40.801,-6 -51.602,-6 -10.801,0 -36,1.1992 -51.602,6 -26.398,9.6016 -31.199,37.199 -32.398,38.398 -3.6016,13.199 -4.8008,27.602 -4.8008,43.199 1.1992,14.402 2.3984,28.801 4.8008,42 z"
       id="path17" />
    <path
       d="m 621.6,541.2 c 0,2.3984 7.1992,28.801 32.398,38.398 15.602,6 40.801,6 51.602,6 10.801,0 36,-1.1992 51.602,-6 26.398,-9.6016 31.199,-37.199 32.398,-38.398 3.6016,-13.199 4.8008,-27.602 4.8008,-43.199 0,-15.602 -1.1992,-30 -4.8008,-42 0,-1.1992 -6,-28.801 -32.398,-38.398 -15.602,-6 -40.801,-6 -51.602,-6 -10.801,0 -36,1.1992 -51.602,6 -26.398,9.6016 -31.199,37.199 -32.398,38.398 -3.6016,13.199 -4.8008,27.602 -4.8008,43.199 0,14.402 1.1992,28.801 4.8008,42 z"
       id="path19" />
    <path
       d="m 489.6,628.8 c 12,0 34.801,1.1992 45.602,6 14.398,6 20.398,20.398 22.801,28.801 v 1.1992 c 2.3984,10.801 3.6016,24 3.6016,38.398 0,14.398 -1.1992,27.602 -3.6016,38.398 v 1.1992 c -2.3984,8.3984 -8.3984,22.801 -22.801,27.602 -12,4.8008 -34.801,6 -46.801,6 -12,0 -34.801,-1.1992 -46.801,-6 -18,-7.1992 -22.801,-27.602 -22.801,-27.602 -2.3984,-12 -4.8008,-24 -4.8008,-39.602 0,-14.398 1.1992,-27.602 3.6016,-38.398 v -1.1992 c 2.3984,-8.3984 8.3984,-22.801 22.801,-27.602 14.398,-5.9961 37.199,-7.1953 49.199,-7.1953 m 0,-14.402 c -10.801,0 -36,1.1992 -51.602,6 -26.398,9.6016 -31.199,37.199 -32.398,38.398 -3.6016,13.199 -4.8008,27.602 -4.8008,43.199 0,15.602 1.1992,30 4.8008,43.199 0,2.3984 7.1992,28.801 32.398,38.398 15.602,6 40.801,6 51.602,6 10.801,0 36,-1.1992 51.602,-6 26.398,-9.6016 31.199,-37.199 32.398,-38.398 3.6016,-13.199 4.8008,-27.602 4.8008,-43.199 0,-15.602 -1.1992,-30 -4.8008,-42 0,-1.1992 -6,-28.801 -32.398,-38.398 -15.602,-5.9961 -42.004,-7.1992 -51.602,-7.1992 z"
       id="path21" />
    <path
       d="m 621.6,745.2 c 0,2.3984 7.1992,28.801 32.398,38.398 15.602,6 40.801,6 51.602,6 10.801,0 36,-1.1992 51.602,-6 26.398,-9.6016 31.199,-37.199 32.398,-38.398 3.6016,-13.199 4.8008,-27.602 4.8008,-43.199 0,-15.602 -1.1992,-30 -4.8008,-42 0,-1.1992 -6,-28.801 -32.398,-38.398 -15.602,-6 -40.801,-6 -51.602,-6 -10.801,0 -36,1.1992 -51.602,6 -26.398,9.6016 -31.199,37.199 -32.398,38.398 -3.6016,13.199 -4.8008,27.602 -4.8008,43.199 0,14.402 1.1992,28.801 4.8008,42 z"
       id="path23" />
  </g>
</svg>
